<svg width="1401" height="369" viewBox="0 0 1401 369" fill="none" xmlns="http://www.w3.org/2000/svg">
<g clip-path="url(#clip0_208_2330)">
<path d="M582.309 113.002L512.068 23.3935C511.441 22.5903 510.751 21.7871 509.986 20.9839C509.221 20.1807 508.531 19.503 507.904 18.9759V95.7076C507.904 99.5479 509.07 102.861 511.39 105.635C513.711 108.408 516.796 109.789 520.646 109.789V111.132H492.767V109.789C496.705 109.789 499.828 108.408 502.148 105.635C504.468 102.861 505.634 99.5103 505.634 95.5695V17.0808C501.609 14.0437 497.37 12.2992 492.905 11.8474V10.5045H527.355L580.039 78.5139V25.9412C580.039 22.1009 578.873 18.7876 576.553 16.014C574.233 13.2405 571.148 11.8599 567.31 11.8599V10.5171H595.063V11.8599C591.225 11.8599 588.14 13.253 585.808 16.014C583.488 18.7876 582.321 22.1009 582.321 25.9412V113.002H582.309Z" fill="#26211B"/>
<path d="M628.559 113.002C621.236 113.002 614.815 111.521 609.322 108.572C603.829 105.622 599.553 101.456 596.518 96.0967C593.483 90.7252 591.965 84.3874 591.965 77.0455C591.965 69.7037 593.483 63.3658 596.518 57.9944C599.553 52.6229 603.829 48.4688 609.322 45.5195C614.815 42.5702 621.223 41.0893 628.559 41.0893C635.896 41.0893 642.279 42.5702 647.734 45.5195C653.19 48.4688 657.429 52.6354 660.463 57.9944C663.498 63.3658 665.016 69.7162 665.016 77.0455C665.016 84.3748 663.498 90.7252 660.463 96.0967C657.429 101.468 653.177 105.622 647.734 108.572C642.279 111.521 635.896 113.002 628.559 113.002ZM628.422 111.257C631.544 111.257 634.228 109.689 636.46 106.564C638.693 103.439 640.436 99.2468 641.69 94.0259C642.944 88.7925 643.571 83.0947 643.571 76.92C643.571 70.2182 642.919 64.2946 641.627 59.149C640.335 54.0034 638.542 49.9874 636.26 47.0757C633.977 44.1766 631.406 42.7208 628.547 42.7208C625.512 42.7208 622.853 44.2896 620.571 47.4146C618.289 50.5521 616.52 54.7062 615.279 59.8894C614.025 65.0727 613.398 70.7579 613.398 76.92C613.398 83.7222 614.062 89.7086 615.404 94.8919C616.746 100.075 618.552 104.104 620.834 106.965C623.117 109.827 625.637 111.257 628.409 111.257H628.422Z" fill="#26211B"/>
<path d="M694.775 113.002C692.455 113.002 690.712 112.914 689.546 112.738C688.379 112.562 687.288 112.337 686.26 112.073C685.232 111.809 683.865 111.584 682.172 111.408C680.479 111.232 677.883 111.144 674.396 111.144L671.173 85.9185H672.917C674.346 94.3271 677.03 100.652 680.955 104.907C684.88 109.161 689.182 111.282 693.822 111.282C698.462 111.282 701.848 110.341 704.206 108.471C706.576 106.589 707.755 104.041 707.755 100.828C707.755 98.7698 707.241 96.9626 706.212 95.3939C705.184 93.8251 703.416 92.2187 700.92 90.562C698.412 88.9054 695.026 86.9225 690.737 84.5882L686.849 82.4421C681.933 79.6685 678.297 76.4305 675.926 72.7157C673.556 69.0009 672.377 64.9973 672.377 60.7052C672.377 54.6184 674.584 49.8367 679.011 46.3478C683.438 42.8589 689.358 41.1144 696.769 41.1144C698.65 41.1144 700.168 41.2022 701.321 41.3779C702.475 41.5536 703.604 41.7795 704.67 42.0431C705.748 42.3066 707.078 42.5325 708.696 42.7083C710.301 42.884 712.445 42.9718 715.129 42.9718L717.01 64.5706H715.405C714.866 60.3663 713.687 56.6389 711.856 53.3633C710.025 50.1003 707.855 47.5526 705.36 45.7203C702.852 43.888 700.306 42.9718 697.722 42.9718C694.324 42.9718 691.627 43.8629 689.608 45.6575C687.602 47.4522 686.586 49.9497 686.586 53.1751C686.586 55.5847 687.364 57.8061 688.931 59.8141C690.499 61.8222 693.509 63.9933 697.986 66.3151L702.011 68.3231C708.269 71.5485 712.821 74.8994 715.681 78.3884C718.54 81.8773 719.97 86.3452 719.97 91.8045C719.97 105.76 711.567 112.826 694.763 113.002H694.775Z" fill="#26211B"/>
<path d="M750.532 113.002C748.212 113.002 746.469 112.914 745.302 112.738C744.136 112.562 743.045 112.337 742.017 112.073C740.988 111.809 739.621 111.584 737.928 111.408C736.235 111.232 733.639 111.144 730.153 111.144L726.93 85.9185H728.673C730.103 94.3271 732.786 100.652 736.712 104.907C740.637 109.161 744.939 111.282 749.579 111.282C754.219 111.282 757.605 110.341 759.962 108.471C762.333 106.589 763.512 104.041 763.512 100.828C763.512 98.7698 762.997 96.9626 761.969 95.3939C760.941 93.8251 759.172 92.2187 756.677 90.562C754.169 88.9054 750.783 86.9225 746.494 84.5882L742.606 82.4421C737.69 79.6685 734.053 76.4305 731.683 72.7157C729.313 69.0009 728.134 64.9973 728.134 60.7052C728.134 54.6184 730.341 49.8367 734.768 46.3478C739.195 42.8589 745.114 41.1144 752.526 41.1144C754.407 41.1144 755.924 41.2022 757.078 41.3779C758.232 41.5536 759.36 41.7795 760.426 42.0431C761.505 42.3066 762.834 42.5325 764.452 42.7083C766.057 42.884 768.202 42.9718 770.886 42.9718L772.767 64.5706H771.161C770.622 60.3663 769.443 56.6389 767.612 53.3633C765.781 50.1003 763.612 47.5526 761.116 45.7203C758.608 43.888 756.062 42.9718 753.479 42.9718C750.08 42.9718 747.384 43.8629 745.365 45.6575C743.358 47.4522 742.343 49.9497 742.343 53.1751C742.343 55.5847 743.12 57.8061 744.688 59.8141C746.255 61.8222 749.265 63.9933 753.742 66.3151L757.768 68.3231C764.026 71.5485 768.578 74.8994 771.437 78.3884C774.297 81.8773 775.726 86.3452 775.726 91.8045C775.726 105.76 767.324 112.826 750.519 113.002H750.532Z" fill="#26211B"/>
<path d="M818.766 113.002C811.442 113.002 805.021 111.521 799.529 108.572C794.036 105.622 789.759 101.456 786.724 96.0967C783.69 90.7252 782.172 84.3874 782.172 77.0455C782.172 69.7037 783.69 63.3658 786.724 57.9944C789.759 52.6229 794.036 48.4688 799.529 45.5195C805.021 42.5702 811.43 41.0893 818.766 41.0893C826.103 41.0893 832.486 42.5702 837.941 45.5195C843.396 48.4688 847.635 52.6354 850.67 57.9944C853.705 63.3658 855.223 69.7162 855.223 77.0455C855.223 84.3748 853.705 90.7252 850.67 96.0967C847.635 101.468 843.384 105.622 837.941 108.572C832.486 111.521 826.103 113.002 818.766 113.002ZM818.628 111.257C821.751 111.257 824.435 109.689 826.667 106.564C828.899 103.439 830.642 99.2468 831.897 94.0259C833.151 88.7925 833.778 83.0947 833.778 76.92C833.778 70.2182 833.126 64.2946 831.834 59.149C830.542 54.0034 828.749 49.9874 826.466 47.0757C824.184 44.1766 821.613 42.7208 818.754 42.7208C815.719 42.7208 813.06 44.2896 810.778 47.4146C808.495 50.5521 806.727 54.7062 805.485 59.8894C804.231 65.0727 803.604 70.7579 803.604 76.92C803.604 83.7222 804.269 89.7086 805.611 94.8919C806.953 100.075 808.759 104.104 811.041 106.965C813.324 109.827 815.844 111.257 818.616 111.257H818.628Z" fill="#26211B"/>
<path d="M884.982 113.002C882.662 113.002 880.919 112.914 879.752 112.738C878.586 112.562 877.495 112.337 876.467 112.073C875.438 111.809 874.071 111.584 872.378 111.408C870.685 111.232 868.089 111.144 864.603 111.144L861.38 85.9185H863.123C864.553 94.3271 867.237 100.652 871.162 104.907C875.087 109.161 879.389 111.282 884.029 111.282C888.669 111.282 892.055 110.341 894.413 108.471C896.783 106.589 897.962 104.041 897.962 100.828C897.962 98.7698 897.448 96.9626 896.419 95.3939C895.391 93.8251 893.623 92.2187 891.127 90.562C888.619 88.9054 885.233 86.9225 880.944 84.5882L877.056 82.4421C872.14 79.6685 868.503 76.4305 866.133 72.7157C863.763 69.0009 862.584 64.9973 862.584 60.7052C862.584 54.6184 864.791 49.8367 869.218 46.3478C873.645 42.8589 879.564 41.1144 886.976 41.1144C888.857 41.1144 890.375 41.2022 891.528 41.3779C892.682 41.5536 893.811 41.7795 894.877 42.0431C895.955 42.3066 897.285 42.5325 898.902 42.7083C900.508 42.884 902.652 42.9718 905.336 42.9718L907.217 64.5706H905.612C905.072 60.3663 903.894 56.6389 902.063 53.3633C900.232 50.1003 898.062 47.5526 895.566 45.7203C893.058 43.888 890.513 42.9718 887.929 42.9718C884.531 42.9718 881.834 43.8629 879.815 45.6575C877.809 47.4522 876.793 49.9497 876.793 53.1751C876.793 55.5847 877.57 57.8061 879.138 59.8141C880.706 61.8222 883.715 63.9933 888.192 66.3151L892.218 68.3231C898.476 71.5485 903.028 74.8994 905.888 78.3884C908.747 81.8773 910.177 86.3452 910.177 91.8045C910.177 105.76 901.774 112.826 884.969 113.002H884.982Z" fill="#26211B"/>
<path d="M490.221 272.1V270.757C491.914 270.582 493.645 269.753 495.388 268.272C497.131 266.791 498.762 264.947 500.279 262.7C501.797 260.466 502.963 258.27 503.766 256.124L539.156 169.465H540.36L575.211 256.124C579.149 265.875 583.525 270.745 588.354 270.745H588.755V272.088H545.865V270.745H546.404C550.43 270.745 553.126 269.515 554.518 267.055C555.898 264.595 555.697 261.182 553.916 256.789L545.878 236.797H513.572L506.061 255.446C504.455 259.286 504.656 262.763 506.662 265.838C508.669 268.912 511.917 270.557 516.382 270.732V272.075H490.247L490.221 272.1ZM514.212 235.077H545.175L529.888 196.448L514.2 235.077H514.212Z" fill="#26211B"/>
<path d="M625.073 273.983C617.21 273.983 610.375 272.464 604.569 269.427C598.763 266.39 594.273 262.073 591.1 256.488C587.927 250.903 586.347 244.352 586.347 236.834V183.584C586.347 180.359 585.356 177.773 583.4 175.803C581.431 173.832 578.848 172.853 575.625 172.853H575.085V171.511H618.251V172.853H617.85C614.627 172.853 612.043 173.845 610.074 175.803C608.105 177.773 607.127 180.359 607.127 183.584V236.834C607.127 246.31 609.56 253.802 614.439 259.299C619.304 264.796 625.901 267.545 634.216 267.545C642.53 267.545 649.227 264.746 654.055 259.161C658.883 253.576 661.291 246.121 661.291 236.822V185.579C661.291 181.739 660.125 178.689 657.805 176.455C655.485 174.221 652.4 173.017 648.55 172.828V171.486H676.303V172.828C672.465 173.004 669.38 174.221 667.047 176.455C664.727 178.689 663.561 181.739 663.561 185.579V236.822C663.561 244.339 662.019 250.865 658.933 256.413C655.848 261.96 651.422 266.277 645.665 269.352C639.896 272.439 633.037 273.983 625.086 273.983H625.073Z" fill="#26211B"/>
<path d="M700.807 272.1L700.945 270.757H701.083C704.306 270.757 706.89 269.778 708.858 267.808C710.827 265.838 711.806 263.252 711.806 260.027V173.368H707.918C703.541 173.368 699.252 174.058 695.051 175.451C690.85 176.844 687.226 179.342 684.191 182.969C681.156 186.596 679.099 191.804 678.021 198.594H676.679L680.428 171.498H763.938L767.826 198.594H766.484C765.405 191.892 763.336 186.696 760.251 183.032C757.166 179.367 753.504 176.844 749.253 175.451C745.001 174.071 740.612 173.368 736.047 173.368H732.561V260.027C732.561 263.252 733.539 265.838 735.508 267.808C737.477 269.778 740.06 270.757 743.283 270.757L743.421 272.1H700.795H700.807Z" fill="#26211B"/>
<path d="M823.055 273.983C812.333 273.983 802.927 271.812 794.839 267.482C786.75 263.139 780.454 257.065 775.939 249.234C771.425 241.415 769.167 232.266 769.167 221.799C769.167 211.332 771.425 202.196 775.939 194.364C780.454 186.546 786.75 180.459 794.839 176.116C802.927 171.774 812.333 169.615 823.055 169.615C833.778 169.615 843.183 171.787 851.272 176.116C859.361 180.459 865.657 186.533 870.171 194.364C874.686 202.196 876.943 211.332 876.943 221.799C876.943 232.266 874.686 241.402 870.171 249.234C865.657 257.065 859.361 263.139 851.272 267.482C843.183 271.824 833.778 273.983 823.055 273.983ZM823.055 271.837C827.696 271.837 831.947 270.632 835.784 268.21C839.622 265.8 842.933 262.399 845.704 258.019C848.388 253.639 850.457 248.355 851.937 242.193C853.417 236.031 854.144 229.179 854.144 221.674C854.144 214.169 853.404 207.304 851.937 201.079C850.457 194.866 848.388 189.57 845.704 185.178C842.933 180.798 839.622 177.397 835.784 174.987C831.947 172.577 827.696 171.36 823.055 171.36C818.415 171.36 814.164 172.565 810.327 174.987C806.489 177.397 803.216 180.798 800.545 185.178C797.773 189.558 795.654 194.854 794.174 201.079C792.694 207.291 791.967 214.156 791.967 221.674C791.967 229.191 792.707 236.031 794.174 242.193C795.654 248.368 797.773 253.639 800.545 258.019C803.228 262.399 806.489 265.8 810.327 268.21C814.164 270.619 818.415 271.837 823.055 271.837Z" fill="#26211B"/>
<path d="M878.825 272.1V270.757C882.048 270.757 884.631 269.778 886.6 267.808C888.569 265.838 889.547 263.252 889.547 260.027V183.559C889.547 180.333 888.556 177.748 886.6 175.778C884.631 173.807 882.048 172.828 878.825 172.828V171.486H923.595C930.029 171.486 935.635 172.577 940.413 174.774C945.191 176.97 948.903 180.007 951.536 183.898C954.17 187.788 955.487 192.331 955.487 197.515C955.487 204.041 953.48 209.638 949.455 214.282C945.429 218.938 939.986 221.749 933.101 222.728C934.619 223.18 936.425 224.523 938.531 226.756C940.626 228.99 942.67 231.764 944.626 235.077L961.519 264.056C962.773 266.114 964.265 267.745 966.008 268.95C967.752 270.155 969.695 270.757 971.84 270.757V272.1H944.087C942.833 270.042 941.516 267.808 940.137 265.398C938.745 262.989 937.478 260.755 936.312 258.697L923.169 234.55C921.564 231.601 920.197 229.292 919.081 227.648C917.964 225.991 916.848 224.849 915.732 224.221C914.616 223.594 913.212 223.28 911.506 223.28H910.164V260.04C910.164 263.265 911.142 265.85 913.111 267.821C915.08 269.791 917.663 270.77 920.886 270.77H921.15V272.113H878.787L878.825 272.1ZM910.189 221.523H917.024C922.83 221.523 927.458 219.289 930.894 214.821C934.33 210.353 936.061 204.543 936.061 197.377C936.061 190.21 934.406 184.299 931.107 179.869C927.797 175.439 923.42 173.23 917.964 173.23H910.189V221.523Z" fill="#26211B"/>
<path d="M967.288 272.1L967.426 270.757H967.564C970.787 270.757 973.37 269.904 975.339 268.21C977.308 266.515 978.286 264.056 978.286 260.83V183.559C978.286 180.333 977.295 177.748 975.339 175.778C973.37 173.807 970.787 172.828 967.564 172.828L967.426 171.486H1039.27L1043.3 198.443H1041.96C1039.27 181.626 1028.69 173.217 1010.19 173.217H998.928V211.985H1010.99C1015.46 211.985 1019.03 210.617 1021.71 207.894C1024.4 205.17 1025.74 201.568 1025.74 197.1H1027.08V230.095H1025.74C1025.65 225.263 1024.14 221.335 1021.19 218.285C1018.24 215.248 1014.35 213.729 1009.53 213.729H998.941V260.818C998.941 267.168 1002.06 270.343 1008.32 270.343H1013.95C1022.62 270.343 1029.5 268.109 1034.59 263.641C1039.69 259.174 1042.95 252.145 1044.38 242.582H1045.72L1041.69 272.1H967.3H967.288Z" fill="#26211B"/>
<path d="M1078.95 273.983C1076.63 273.983 1074.72 273.895 1073.26 273.719C1071.78 273.543 1070.32 273.318 1068.91 273.054C1067.48 272.79 1065.73 272.565 1063.68 272.389C1061.62 272.213 1058.81 272.125 1055.24 272.125L1050.55 237.248H1052.15C1053.49 248.242 1056.55 256.726 1061.33 262.675C1066.11 268.624 1072.25 271.598 1079.77 271.598C1085.31 271.598 1089.82 270.029 1093.31 266.904C1096.8 263.779 1098.54 259.701 1098.54 254.693C1098.54 252.547 1098.16 250.489 1097.4 248.518C1096.63 246.548 1095.37 244.452 1093.57 242.218C1091.78 239.984 1089.42 237.55 1086.46 234.901C1083.52 232.266 1079.85 229.292 1075.48 225.978L1069.98 221.824C1063.29 216.729 1058.63 212.161 1056.04 208.145C1053.44 204.116 1052.15 199.736 1052.15 194.992C1052.15 187.123 1055.04 180.936 1060.79 176.418C1066.56 171.9 1074.17 169.641 1083.64 169.641C1085.96 169.641 1087.87 169.728 1089.33 169.904C1090.81 170.08 1092.23 170.306 1093.62 170.569C1095 170.833 1096.63 171.059 1098.51 171.235C1100.4 171.41 1102.8 171.498 1105.75 171.498L1107.09 198.594H1105.75C1104.5 190.273 1101.81 183.709 1097.71 178.878C1093.6 174.046 1088.65 171.636 1082.84 171.636C1078.73 171.636 1075.44 172.841 1072.98 175.263C1070.52 177.673 1069.29 180.898 1069.29 184.927C1069.29 188.416 1070.44 191.741 1072.72 194.917C1075 198.092 1078.95 201.782 1084.58 205.986L1090.35 210.278C1096.24 214.57 1100.92 218.524 1104.36 222.151C1107.8 225.778 1110.28 229.279 1111.8 232.68C1113.31 236.081 1114.08 239.708 1114.08 243.549C1114.08 249.447 1112.6 254.681 1109.65 259.249C1106.7 263.805 1102.62 267.369 1097.39 269.916C1092.16 272.464 1086.01 273.832 1078.95 274.008V273.983Z" fill="#26211B"/>
<path d="M494.648 345.682C494.648 337.549 499.602 332.241 506.675 332.241C512.494 332.241 516.908 335.215 518.037 341.892H513.861C512.996 337.361 510.274 335.868 506.637 335.868C501.872 335.868 498.674 339.507 498.674 345.519V345.832C498.674 351.894 501.834 355.483 506.562 355.483C510.312 355.483 513.159 353.877 513.949 349.158H518.087C517.071 356.073 512.507 359.123 506.487 359.123C499.577 359.123 494.661 353.764 494.661 345.682H494.648Z" fill="#26211B"/>
<path d="M520.144 345.682C520.144 337.675 525.185 332.241 532.835 332.241C540.485 332.241 545.326 337.675 545.326 345.682C545.326 353.689 540.285 359.123 532.635 359.123C524.985 359.123 520.144 353.689 520.144 345.682ZM541.275 345.757V345.556C541.275 339.495 538.04 335.742 532.798 335.742C527.556 335.742 524.207 339.419 524.207 345.556V345.757C524.207 351.856 527.443 355.609 532.685 355.609C537.927 355.609 541.275 351.932 541.275 345.757Z" fill="#26211B"/>
<path d="M552.512 338.34V358.659H548.687V332.705H553.214L566.056 352.082V332.705H569.881V358.696H566.094L552.499 338.34H552.512Z" fill="#26211B"/>
<path d="M572.778 350.376H576.992C577.769 354.203 579.801 355.647 583.789 355.647C587.3 355.647 589.332 354.003 589.332 351.267C589.332 348.681 586.247 347.978 582.497 347.276C578.195 346.422 573.631 345.004 573.631 340.009C573.631 335.516 577.418 332.228 582.735 332.228C588.554 332.228 592.342 335.077 593.119 340.9H588.943C588.391 337.11 586.247 335.667 582.698 335.667C579.5 335.667 577.506 337.311 577.506 339.808C577.506 342.582 580.904 343.134 584.616 343.837C588.868 344.653 593.244 345.983 593.244 351.066C593.244 355.797 589.771 359.073 583.914 359.073C577.318 359.073 573.806 355.986 572.79 350.363L572.778 350.376Z" fill="#26211B"/>
<path d="M596.167 348.455V332.705H600.067V348.38C600.067 353.3 602.136 355.647 606.588 355.647C611.04 355.647 612.996 353.375 612.996 348.418V332.705H616.859V348.418C616.859 355.647 612.996 359.123 606.626 359.123C599.753 359.123 596.167 355.408 596.167 348.455Z" fill="#26211B"/>
<path d="M621.085 332.705H624.985V355.132H637.213V358.646H621.085V332.692V332.705Z" fill="#26211B"/>
<path d="M641.351 336.181H633.112V332.705H653.528V336.181H645.251V358.646H641.351V336.181Z" fill="#26211B"/>
<path d="M660.363 332.705H664.928L674.421 358.659H670.283L667.587 351.116H657.428L654.619 358.659H650.594L660.35 332.705H660.363ZM666.383 347.677L662.558 336.972L658.62 347.677H666.395H666.383Z" fill="#26211B"/>
<path d="M684.341 332.705H693.321C701.761 332.705 706.325 337.198 706.325 345.757C706.325 354.316 701.597 358.659 692.932 358.659H684.341V332.705ZM693.045 355.22C699.177 355.22 702.225 352.133 702.225 345.845V345.607C702.225 339.118 699.378 336.144 693.321 336.144H688.241V355.22H693.045Z" fill="#26211B"/>
<path d="M709.611 332.705H727.695V336.181H713.486V343.41H722.98V346.887H713.486V355.17H728.284V358.646H709.624V332.692L709.611 332.705Z" fill="#26211B"/>
<path d="M738.154 345.682C738.154 337.675 743.195 332.241 750.845 332.241C758.495 332.241 763.336 337.675 763.336 345.682C763.336 353.689 758.294 359.123 750.645 359.123C742.995 359.123 738.154 353.689 738.154 345.682ZM759.285 345.757V345.556C759.285 339.495 756.05 335.742 750.808 335.742C745.565 335.742 742.217 339.419 742.217 345.556V345.757C742.217 351.856 745.453 355.609 750.695 355.609C755.937 355.609 759.285 351.932 759.285 345.757Z" fill="#26211B"/>
<path d="M766.697 332.705H776.504C782.21 332.705 785.207 335.052 785.207 339.545C785.207 342.168 783.802 343.925 781.344 344.853C784.505 345.87 786.386 347.903 786.386 351.179C786.386 356.136 783.1 358.646 776.742 358.646H766.709V332.692L766.697 332.705ZM775.751 343.41C779.263 343.41 781.106 342.118 781.106 339.771C781.219 337.185 779.89 336.131 776.579 336.131H770.61V343.398H775.764L775.751 343.41ZM776.454 355.207C780.203 355.207 782.11 353.915 782.11 350.991C782.185 348.142 780.191 346.774 776.366 346.774H770.584V355.22H776.441L776.454 355.207Z" fill="#26211B"/>
<path d="M789.571 332.705H798.939C805.812 332.705 808.859 335.441 808.859 339.783C808.859 343.423 806.715 346.272 802.539 346.974C806.715 348.192 808.596 351.543 809.336 357.68L809.449 358.659H805.31L805.272 357.843C804.57 352.258 802.501 348.656 796.92 348.656H793.446V358.659H789.584V332.705H789.571ZM798.362 345.406C803.203 345.406 804.921 342.707 804.921 340.172C804.921 337.361 803.128 336.031 798.864 336.031H793.434V345.406H798.35H798.362Z" fill="#26211B"/>
<path d="M820.811 332.705H825.376L834.869 358.659H830.73L828.034 351.116H817.876L815.067 358.659H811.041L820.798 332.705H820.811ZM826.83 347.677L823.005 336.972L819.067 347.677H826.843H826.83Z" fill="#26211B"/>
<path d="M835.145 350.376H839.358C840.136 354.203 842.168 355.647 846.156 355.647C849.667 355.647 851.699 354.003 851.699 351.267C851.699 348.681 848.614 347.978 844.864 347.276C840.562 346.422 835.998 345.004 835.998 340.009C835.998 335.516 839.785 332.228 845.102 332.228C850.921 332.228 854.708 335.077 855.486 340.9H851.31C850.758 337.11 848.614 335.667 845.065 335.667C841.867 335.667 839.873 337.311 839.873 339.808C839.873 342.582 843.271 343.134 846.983 343.837C851.235 344.653 855.611 345.983 855.611 351.066C855.611 355.797 852.138 359.073 846.281 359.073C839.685 359.073 836.173 355.986 835.157 350.363L835.145 350.376Z" fill="#26211B"/>
<path d="M866.183 332.705H870.084V355.132H882.311V358.646H866.183V332.692V332.705Z" fill="#26211B"/>
<path d="M885.873 332.705H889.773V358.659H885.873V332.705Z" fill="#26211B"/>
<path d="M901.097 336.181H892.858V332.705H913.274V336.181H904.997V358.646H901.097V336.181Z" fill="#26211B"/>
<path d="M916.246 332.705H934.33V336.181H920.121V343.41H929.615V346.887H920.121V355.17H934.92V358.646H916.259V332.692L916.246 332.705Z" fill="#26211B"/>
<path d="M938.118 332.705H947.486C954.358 332.705 957.405 335.441 957.405 339.783C957.405 343.423 955.261 346.272 951.085 346.974C955.261 348.192 957.142 351.543 957.882 357.68L957.995 358.659H953.856L953.819 357.843C953.117 352.258 951.047 348.656 945.467 348.656H941.993V358.659H938.13V332.705H938.118ZM946.909 345.406C951.75 345.406 953.468 342.707 953.468 340.172C953.468 337.361 951.674 336.031 947.41 336.031H941.98V345.406H946.896H946.909Z" fill="#26211B"/>
<path d="M969.357 332.705H973.922L983.415 358.659H979.277L976.58 351.116H966.422L963.613 358.659H959.587L969.344 332.705H969.357ZM975.376 347.677L971.551 336.972L967.614 347.677H975.389H975.376ZM974.21 324.899H978.587V325.212L972.655 330.571H970.235L974.223 324.899H974.21Z" fill="#26211B"/>
<path d="M986.187 332.705H995.555C1002.43 332.705 1005.47 335.441 1005.47 339.783C1005.47 343.423 1003.33 346.272 999.154 346.974C1003.33 348.192 1005.21 351.543 1005.95 357.68L1006.06 358.659H1001.93L1001.89 357.843C1001.19 352.258 999.116 348.656 993.536 348.656H990.062V358.659H986.199V332.705H986.187ZM994.978 345.406C999.819 345.406 1001.54 342.707 1001.54 340.172C1001.54 337.361 999.743 336.031 995.479 336.031H990.049V345.406H994.965H994.978Z" fill="#26211B"/>
<path d="M1009.34 332.705H1013.24V358.659H1009.34V332.705Z" fill="#26211B"/>
<path d="M1025.78 332.705H1030.34L1039.84 358.659H1035.7L1033 351.116H1022.84L1020.03 358.659H1016.01L1025.77 332.705H1025.78ZM1031.8 347.677L1027.97 336.972L1024.03 347.677H1031.81H1031.8Z" fill="#26211B"/>
<path d="M1040.11 350.376H1044.33C1045.1 354.203 1047.14 355.647 1051.12 355.647C1054.63 355.647 1056.67 354.003 1056.67 351.267C1056.67 348.681 1053.58 347.978 1049.83 347.276C1045.53 346.422 1040.97 345.004 1040.97 340.009C1040.97 335.516 1044.75 332.228 1050.07 332.228C1055.89 332.228 1059.68 335.077 1060.45 340.9H1056.28C1055.73 337.11 1053.58 335.667 1050.03 335.667C1046.83 335.667 1044.84 337.311 1044.84 339.808C1044.84 342.582 1048.24 343.134 1051.95 343.837C1056.2 344.653 1060.58 345.983 1060.58 351.066C1060.58 355.797 1057.11 359.073 1051.25 359.073C1044.65 359.073 1041.14 355.986 1040.12 350.363L1040.11 350.376Z" fill="#26211B"/>
<path d="M1071.15 332.705H1080.13C1088.57 332.705 1093.13 337.198 1093.13 345.757C1093.13 354.316 1088.41 358.659 1079.74 358.659H1071.15V332.705ZM1079.85 355.22C1085.99 355.22 1089.03 352.133 1089.03 345.845V345.607C1089.03 339.118 1086.19 336.144 1080.13 336.144H1075.05V355.22H1079.85Z" fill="#26211B"/>
<path d="M1103.09 332.705H1107.66L1117.15 358.659H1113.01L1110.32 351.116H1100.16L1097.35 358.659H1093.32L1103.08 332.705H1103.09ZM1109.11 347.677L1105.29 336.972L1101.35 347.677H1109.12H1109.11Z" fill="#26211B"/>
<path d="M1127.07 332.705H1135.27C1142.38 332.705 1145.82 335.366 1145.82 340.837C1145.82 346.309 1142.27 349.083 1135.16 349.083H1130.98V358.659H1127.08V332.705H1127.07ZM1135.16 345.757C1139.85 345.757 1141.83 344.389 1141.83 340.837C1141.83 337.286 1139.96 336.031 1135.27 336.031H1130.97V345.757H1135.15H1135.16Z" fill="#26211B"/>
<path d="M1148.08 345.682C1148.08 337.675 1153.12 332.241 1160.77 332.241C1168.42 332.241 1173.26 337.675 1173.26 345.682C1173.26 353.689 1168.22 359.123 1160.57 359.123C1152.92 359.123 1148.08 353.689 1148.08 345.682ZM1169.21 345.757V345.556C1169.21 339.495 1165.97 335.742 1160.73 335.742C1155.49 335.742 1152.14 339.419 1152.14 345.556V345.757C1152.14 351.856 1155.38 355.609 1160.62 355.609C1165.86 355.609 1169.21 351.932 1169.21 345.757Z" fill="#26211B"/>
<path d="M1176.62 332.705H1180.52V355.132H1192.75V358.646H1176.62V332.692V332.705Z" fill="#26211B"/>
<path d="M1196.31 332.705H1200.21V358.659H1196.31V332.705ZM1199.86 324.886H1203.92V325.2L1199.08 330.559H1196.9L1199.87 324.886H1199.86Z" fill="#26211B"/>
<path d="M1203.76 345.682C1203.76 337.549 1208.71 332.241 1215.78 332.241C1221.6 332.241 1226.02 335.215 1227.15 341.892H1222.97C1222.11 337.361 1219.38 335.868 1215.75 335.868C1210.98 335.868 1207.78 339.507 1207.78 345.519V345.832C1207.78 351.894 1210.94 355.483 1215.67 355.483C1219.42 355.483 1222.27 353.877 1223.06 349.158H1227.2C1226.18 356.073 1221.62 359.123 1215.6 359.123C1208.69 359.123 1203.77 353.764 1203.77 345.682H1203.76Z" fill="#26211B"/>
<path d="M1230.28 332.705H1234.18V358.659H1230.28V332.705Z" fill="#26211B"/>
<path d="M1246.72 332.705H1251.29L1260.78 358.659H1256.64L1253.95 351.116H1243.79L1240.98 358.659H1236.95L1246.71 332.705H1246.72ZM1252.74 347.677L1248.92 336.972L1244.98 347.677H1252.75H1252.74Z" fill="#26211B"/>
<path d="M1270.69 332.705H1277.32L1283.99 353.262L1291.1 332.705H1297.51V358.659H1293.69V336.194L1285.65 358.659H1282.21L1274.53 336.42V358.659H1270.7V332.705H1270.69Z" fill="#26211B"/>
<path d="M1301.97 332.705H1305.87V358.659H1301.97V332.705Z" fill="#26211B"/>
<path d="M1310.37 332.705H1314.27V355.132H1326.49V358.646H1310.37V332.692V332.705Z" fill="#26211B"/>
<path d="M1330.04 332.705H1333.94V358.659H1330.04V332.705Z" fill="#26211B"/>
<path d="M1345.28 336.181H1337.04V332.705H1357.46V336.181H1349.18V358.646H1345.28V336.181Z" fill="#26211B"/>
<path d="M1364.29 332.705H1368.86L1378.35 358.659H1374.21L1371.52 351.116H1361.36L1358.55 358.659H1354.52L1364.28 332.705H1364.29ZM1370.31 347.677L1366.49 336.972L1362.55 347.677H1370.33H1370.31Z" fill="#26211B"/>
<path d="M1381.12 332.705H1390.49C1397.36 332.705 1400.41 335.441 1400.41 339.783C1400.41 343.423 1398.27 346.272 1394.09 346.974C1398.27 348.192 1400.15 351.543 1400.89 357.68L1401 358.659H1396.86L1396.82 357.843C1396.12 352.258 1394.05 348.656 1388.47 348.656H1385V358.659H1381.14V332.705H1381.12ZM1389.91 345.406C1394.75 345.406 1396.47 342.707 1396.47 340.172C1396.47 337.361 1394.68 336.031 1390.42 336.031H1384.99V345.406H1389.9H1389.91Z" fill="#26211B"/>
<path d="M183.046 362.989H123.565C123.904 243.8 124.242 124.611 124.581 5.42169H182.582C182.733 124.611 182.896 243.8 183.046 362.989Z" fill="#AAC5D1"/>
<path d="M64.0837 6.01154H4.60254V362.8H64.0837V6.01154Z" fill="#AAC5D1"/>
<path d="M302.009 5.8233H242.803V362.612H302.009V5.8233Z" fill="#AAC5D1"/>
<path d="M420.983 362.988H361.502V5.81073H420.983V362.988Z" fill="#AAC5D1"/>
<path d="M119.865 302.961C102.208 324.974 84.5504 346.987 66.8929 369C65.9523 246.197 65.0243 123.406 64.0837 0.602417C82.6818 22.1887 101.267 43.775 119.865 65.3613V302.961Z" fill="#1E3235"/>
<path d="M305.721 308.408C323.077 328.4 340.434 348.405 357.79 368.398V0C340.434 20.8082 323.077 41.6164 305.721 62.4371V308.408Z" fill="#264249"/>
<path d="M238.828 0C230.175 21.8749 221.521 43.7624 212.881 65.6374C212.856 144.867 212.831 224.096 212.818 303.325C221.496 325.012 230.162 346.711 238.84 368.398V0H238.828Z" fill="#264249"/>
<path d="M212.881 65.6374C204.178 43.7624 195.462 21.8749 186.758 0V368.398C195.449 346.711 204.127 325.012 212.818 303.325C212.843 224.096 212.868 144.867 212.881 65.6374Z" fill="#1E3235"/>
<path d="M7.41164 0.602417H0V369H7.41164V0.602417Z" fill="#2B4B56"/>
<path d="M66.8928 0.602417H59.4812V369H66.8928V0.602417Z" fill="#2B4B56"/>
<path d="M127.277 0H119.865V368.398H127.277V0Z" fill="#2B4B56"/>
<path d="M186.758 0H179.346V368.398H186.758V0Z" fill="#2B4B56"/>
<path d="M246.239 0H238.828V368.398H246.239V0Z" fill="#2B4B56"/>
<path d="M305.721 0H298.309V368.398H305.721V0Z" fill="#2B4B56"/>
<path d="M365.202 0H357.79V368.398H365.202V0Z" fill="#2B4B56"/>
<path d="M424.696 0H417.284V368.398H424.696V0Z" fill="#2B4B56"/>
</g>
<defs>
<clipPath id="clip0_208_2330">
<rect width="1401" height="369" fill="white"/>
</clipPath>
</defs>
</svg>
